# xmcd CD database file
#
# Track frame offsets:
#	150
#	31335
#	81872
#	118907
#	143095
#	171717
#	198397
#	224180
#	242655
#	263777
#	293087
#	323387
#
# Disc length: 4677 seconds
#
# Revision: 0
# Processed by: cddbd v1.5.1PL0 Copyright (c) Steve Scherf et al.
# Submitted via: CDex 1.50Beta7
#
DISCID=b812430c
DTITLE=Roy Haynes - 2004-Quiet Fire (rec. 1977-78)
DYEAR=2004
DGENRE=Jazz
TTITLE0=Thank You Thank You
TTITLE1=Bullfight
TTITLE2=Quiet Fire
TTITLE3=Processional
TTITLE4=Sweet Song
TTITLE5=Vistalite
TTITLE6=More Pain Than Purpose
TTITLE7=Wonderin'
TTITLE8=Venus Eyes
TTITLE9=Rok Out
TTITLE10=Water Children
TTITLE11=Invitation
EXTD=YEAR: 2004
EXTT0=
EXTT1=
EXTT2=
EXTT3=
EXTT4=
EXTT5=
EXTT6=
EXTT7=
EXTT8=
EXTT9=
EXTT10=
EXTT11=
PLAYORDER=
